<svg version="1" xmlns="http://www.w3.org/2000/svg" width="533.333" height="533.333" viewBox="0 0 400.000000 400.000000"><path d="M176.1 51.2c-2.4 7.3-5 14.8-5.7 16.6l-1.3 3.3-5.3-3.9c-2.9-2.1-10.4-7.3-16.5-11.6-8.6-5.8-11.3-7.2-11.3-5.9 0 1 .9 7.2 2 13.8 1.1 6.6 2 12.8 2 13.7 0 1.3-1.9.4-7.7-3.6-7.5-5.1-13.5-8.6-14.8-8.6-.4 0 .3 1.5 1.4 3.2 3.4 5.2 8.9 16.3 11.2 22.6 1.2 3.1 2.5 6.1 3 6.6.4.5 4.1-.7 8.4-2.8 30.6-14.7 62.3-17.7 98.5-9.4 1.1.2 1.6-.7 1.8-3.2.5-6.4 3.4-19.4 5.7-25.8 1.2-3.4 2.1-6.2 1.8-6.2-1.3 0-9.2 7.3-13.9 12.8-3.2 3.8-5.6 5.8-5.8 5-.3-.7-.8-7.2-1.1-14.3-.4-7.2-1-13.6-1.4-14.3-.5-.8-3.1 1.5-8 7-13.8 15.5-19.3 21.1-20 20.1-.3-.5-4.4-7.1-9.1-14.6-4.7-7.5-8.7-13.7-9-13.7-.3 0-2.5 6-4.9 13.2z"/><path d="M180.5 90.6c-10.6 1.8-23.7 5.6-32.6 9.6l-7.2 3.2 3.9 1.3c4.1 1.4 8.9 5.2 11.7 9.3 2.6 3.8 2.1 4.1-2.9 2-6.1-2.6-13.7-2.6-18 0-7.5 4.7-10 18.4-5.5 30 1.1 3 2.1 5.6 2.1 5.8 0 .2-1.3-.6-3-1.8-7.3-5.2-11.4-18.2-8.8-28.3.8-3.1 1.2-5.7.8-5.7-1.5 0-16 13.3-21.4 19.6-8.9 10.4-20.7 28.7-19.3 30 .2.2 3 .9 6.3 1.5 3.2.6 6.1 1.2 6.2 1.4.2.2-1.7 3.3-4.2 6.9-5.9 8.1-14.6 26.5-18 37.6-2.8 9.3-5.3 22.6-4.4 23.5.3.3 5.4-1 11.4-2.9 5.9-2 10.9-3.4 11.1-3.2.2.2-.1 3.4-.7 7.2-1.3 9.1-1.3 31.1.1 43.1 1.1 10.4 4.7 24.1 8 30.4l2 4 3.7-2.9c6.8-5.4 19.6-19.6 27.7-30.5 9-12.4 8.4-12.5 11.2 1.8 2.4 11.8 2.1 33.9-.6 49.1-1.1 6.7-2.1 12.8-2.1 13.6 0 1.5 7.3 5.2 16.1 8.2 14.4 4.7 39.8 4.8 55.3.2 11.2-3.4 21.2-7.6 28.9-12.3 4.1-2.5 6.1-3.2 6.6-2.4.4.6 1.5 4.5 2.5 8.6l1.8 7.5 3-1.7c5.6-3.2 23.4-21.1 28.7-28.7 8.8-12.7 15.4-30 17.7-46.1l.7-5 5.3 6c2.9 3.2 5.5 5.7 5.7 5.5.9-1 3.7-10.9 5.4-19 2.6-12.2 2.5-39.4-.1-50.5-3.9-16.9-12-35.6-21.5-50l-4.6-7-.3 3.7c-.2 2.1-.6 3.8-1 3.8s-2.8-2.4-5.4-5.4l-4.7-5.3 2.1-2 2-2.1-2-4.6c-2.4-5.4-4.1-5.7-9.5-2-3.4 2.3-4 2.4-5.5 1.1-2-1.7-8.2-5-8.7-4.5-1.2 1.2 9.7 14.4 17 20.7 4.7 4 8.4 7.5 8.2 7.7-.2.3-2.8-.1-5.8-.7-6.3-1.4-21.2-.6-25.2 1.2-2.7 1.2-3 1-12.7-9.2-5.4-5.7-9.9-11.1-10-11.9 0-.9.9-3.3 2-5.5s2-4.1 2-4.2c0-1.2-4.4.2-7.6 2.3-3.3 2.3-4.1 2.4-5.9 1.3-3.5-2.2-11.3-5.9-15.3-7.3-3.4-1.2-4.5-1.2-8.9.3-6.2 2.1-15.5 8-15 9.5.2.6 2.9 2.4 6 4 5 2.5 7.2 3 17.6 3.6l12 .7 6 5.2c3.3 2.9 7.9 7.5 10.3 10.3 4.4 5.3 4.5 5.2-2.4 3.1-1.3-.3-10.6-.7-20.8-.7-17.1-.1-18.9-.3-23.5-2.4-8.6-4-16.4-13.3-16.5-19.8 0-1.8-.8-2.2-4.5-2.7-2.6-.2-4.9-.8-5.3-1.2-1-1.1 8.6-9.2 13.8-11.7 6-2.8 5.9-2.6 2.5-5.4l-3-2.5 3-2.5c7.2-6 29-14.4 37.3-14.4 2.8 0 10.2 3.9 20.9 11.1 4 2.7 7.7 4.9 8.3 4.9.5 0 1.7-2.7 2.7-6 .9-3.3 2.1-6 2.8-6 3 0 27.1 16.5 31.9 21.9 3.3 3.7 3.5 2.3.6-4.7-1.6-3.7-3.4-9.6-4.1-13.1-1.2-6.1-1.4-6.5-7.3-10.9-3.4-2.4-9.3-6-13.2-7.8-7-3.2-20.4-7.7-21-7.1-.2.1.3 2.1 1.1 4.2.8 2.2 1.4 5.2 1.5 6.7 0 2.5-.3 2.4-5.4-2.8-3-2.9-7.6-6.7-10.2-8.4-4.7-3-4.9-3-18.3-2.9-7.5.1-17.2.7-21.6 1.5zm72.4 96.8c3.1 1.9 6.9 4 8.4 4.5l2.8 1.1-.3 9.2-.3 9.1-7 5.4c-14.1 10.9-29.7 17.6-32.9 14.2-1.3-1.4-14.6-26.3-14.6-27.4 0-.3 4.5-3.5 9.9-7.1 10.3-6.7 21.8-12.2 26-12.3 1.3-.1 4.9 1.5 8 3.3zm36.7 4.3c2.6 9.3 2.6 28 0 33.8l-1.8 4-1.8-3.5c-1-1.9-4.1-6.2-6.9-9.5l-5.1-5.9V202l.1-8.5 6.2-4.2c3.4-2.4 6.5-4.3 6.8-4.3.3 0 1.5 3 2.5 6.7zm-12.1 42.8c4.2 6.8 4.1 12.7-.4 21.7-3.1 6.2-12.3 17.1-12.7 15.2-.2-.5-.5-4.3-.9-8.4-.8-10-1.4-10.9-5.3-8.1-3.6 2.5-15.2 8.1-16.9 8.1-1 0-9.3-14.7-9.3-16.4 0-.2 1.7-1 3.8-1.6 4.9-1.6 13.2-6.3 19-10.9 4-3 5.7-3.7 11.2-4.2 3.6-.3 7-.5 7.5-.4.6.1 2.4 2.3 4 5z"/></svg>