<?xml version="1.0" standalone="no"?>
<!DOCTYPE svg PUBLIC "-//W3C//DTD SVG 20010904//EN"
 "http://www.w3.org/TR/2001/REC-SVG-20010904/DTD/svg10.dtd">
<svg version="1.0" xmlns="http://www.w3.org/2000/svg"
 width="180.000000pt" height="180.000000pt" viewBox="0 0 180.000000 180.000000"
 preserveAspectRatio="xMidYMid meet">
<metadata>
Created by potrace 1.13, written by Peter Selinger 2001-2015
</metadata>
<g transform="translate(0.000000,180.000000) scale(0.100000,-0.100000)"
fill="#000000" stroke="none">
<path d="M385 1579 c-176 -82 -324 -150 -330 -152 -5 -2 118 -80 274 -172
l283 -169 -91 -45 c-50 -25 -91 -49 -91 -52 0 -4 118 -76 262 -160 l262 -153
-77 -35 c-43 -19 -76 -38 -75 -43 3 -8 949 -560 954 -555 1 1 -119 157 -267
347 -148 190 -269 347 -269 350 0 3 29 20 65 38 l66 32 -123 118 c-68 64 -158
150 -201 191 l-77 75 45 29 c26 17 44 35 41 43 -14 36 -308 464 -319 463 -6 0
-156 -68 -332 -150z m467 -106 l137 -207 -49 -29 c-28 -16 -50 -32 -50 -36 0
-4 33 -39 73 -77 39 -38 127 -122 195 -186 l122 -117 -64 -33 -63 -33 222
-285 c123 -157 222 -286 221 -288 -2 -1 -164 91 -361 205 l-357 208 75 35 c42
19 76 38 77 42 0 3 -117 75 -260 158 -143 84 -260 154 -260 156 0 2 41 24 90
49 50 25 90 47 90 49 0 2 -124 77 -275 167 -151 89 -272 165 -269 168 8 9 547
259 559 260 6 0 72 -93 147 -206z"/>
</g>
</svg>
